<svg width="4156" height="763" viewBox="0 0 4156 763" fill="none" xmlns="http://www.w3.org/2000/svg">
<path d="M260.926 750C209.168 750 169.292 735.677 141.297 707.031C113.302 678.06 99.3047 637.207 99.3047 584.473V361.816H0.671875V240.234C37.1302 240.234 64.7995 235.84 83.6797 227.051C102.885 218.262 116.395 202.799 124.207 180.664C132.02 158.203 135.926 125.326 135.926 82.0312H260.926V240.234H362.488V361.816H260.926V566.895C260.926 609.212 279.643 630.371 317.078 630.371H362.488V750H260.926ZM1084.17 230.469C1141.79 230.469 1186.87 244.303 1219.42 271.973C1252.3 299.316 1268.74 338.542 1268.74 389.648V750H1109.56V435.547C1109.56 409.831 1102.4 390.462 1088.07 377.441C1074.08 364.095 1056.34 357.422 1034.85 357.422C1007.83 357.422 985.698 366.211 968.445 383.789C951.193 401.367 942.566 430.501 942.566 471.191V750H781.434V436.523C781.434 410.156 774.272 390.462 759.949 377.441C745.952 364.095 727.885 357.422 705.75 357.422C679.057 357.422 656.922 366.699 639.344 385.254C622.091 403.809 613.465 435.384 613.465 479.98V750H455.262V240.234H613.465V299.316C631.043 276.855 652.69 259.766 678.406 248.047C704.122 236.328 732.605 230.469 763.855 230.469C801.941 230.469 834.656 236.816 862 249.512C889.669 262.207 910.34 280.599 924.012 304.688C942.566 279.948 965.353 261.393 992.371 249.023C1019.39 236.654 1049.99 230.469 1084.17 230.469ZM1891.3 240.234L1671.57 750H1532.41L1315.12 240.234H1482.61L1602.23 570.312L1722.84 240.234H1891.3ZM1956.24 240.234H2116.39V750H1956.24V240.234ZM2037.78 177.734C2021.51 177.734 2006.37 173.828 1992.37 166.016C1978.7 157.878 1967.79 147.135 1959.66 133.789C1951.84 120.117 1947.94 105.143 1947.94 88.8672C1947.94 72.9167 1951.84 58.2682 1959.66 44.9219C1967.79 31.25 1978.7 20.5078 1992.37 12.6953C2006.37 4.55729 2021.51 0.488281 2037.78 0.488281C2053.41 0.488281 2067.89 4.55729 2081.24 12.6953C2094.91 20.5078 2105.65 31.25 2113.46 44.9219C2121.6 58.2682 2125.67 72.9167 2125.67 88.8672C2125.67 104.818 2121.6 119.629 2113.46 133.301C2105.65 146.973 2094.91 157.878 2081.24 166.016C2067.89 173.828 2053.41 177.734 2037.78 177.734ZM2425.96 759.766C2365.09 759.766 2314.47 748.047 2274.11 724.609C2233.74 700.846 2209.01 665.365 2199.89 618.164L2332.21 581.055C2340.03 605.794 2351.91 623.535 2367.86 634.277C2384.14 645.02 2403.83 650.391 2426.94 650.391C2444.85 650.391 2459.82 647.298 2471.86 641.113C2484.23 634.603 2490.26 623.698 2489.93 608.398C2489.93 597.331 2485.86 588.053 2477.72 580.566C2469.91 573.079 2459.82 567.057 2447.45 562.5C2435.08 557.943 2417.5 552.572 2394.71 546.387C2362.81 537.923 2339.54 530.762 2324.89 524.902C2290.06 511.882 2262.55 494.954 2242.37 474.121C2222.19 453.288 2212.1 423.828 2212.1 385.742C2212.1 351.562 2220.89 322.917 2238.46 299.805C2256.04 276.693 2280.29 259.44 2311.22 248.047C2342.14 236.654 2377.62 230.957 2417.66 230.957C2472.03 230.957 2517.6 241.862 2554.38 263.672C2591.17 285.156 2614.44 319.336 2624.21 366.211L2502.14 393.066C2494.32 372.233 2483.42 357.422 2469.42 348.633C2455.42 339.518 2438.33 334.961 2418.15 334.961C2399.92 334.961 2385.11 338.053 2373.72 344.238C2362.33 350.098 2356.63 359.049 2356.63 371.094C2356.63 380.208 2360.21 387.858 2367.37 394.043C2374.86 399.902 2384.3 404.785 2395.69 408.691C2407.08 412.272 2423.2 416.667 2444.03 421.875C2455.75 424.479 2467.31 427.409 2478.7 430.664C2510.27 439.453 2537.78 449.87 2561.22 461.914C2584.66 473.958 2604.19 491.211 2619.81 513.672C2635.44 535.807 2643.25 563.965 2643.25 598.145C2643.25 654.134 2622.74 695.15 2581.73 721.191C2541.04 746.908 2489.12 759.766 2425.96 759.766ZM3232.12 240.234V750H3081.73L3077.82 689.941C3059.27 712.077 3035.83 729.329 3007.51 741.699C2979.19 753.743 2947.45 759.766 2912.29 759.766C2849.14 759.766 2800.96 744.466 2767.76 713.867C2734.88 683.268 2718.45 639.811 2718.45 583.496V240.234H2878.6V549.316C2878.6 578.288 2886.41 599.447 2902.04 612.793C2917.99 626.139 2938.5 632.812 2963.56 632.812C2995.46 632.812 3021.51 623.698 3041.69 605.469C3062.2 587.24 3072.61 556.641 3072.94 513.672V240.234H3232.12ZM3875.18 240.234V750H3724.3L3720.89 692.383C3706.89 714.844 3686.22 732.096 3658.88 744.141C3631.53 756.185 3600.77 762.207 3566.59 762.207C3521.02 762.207 3479.51 751.628 3442.08 730.469C3404.64 709.31 3374.86 678.711 3352.72 638.672C3330.59 598.307 3319.52 550.944 3319.52 496.582C3319.52 442.22 3330.59 395.02 3352.72 354.98C3374.86 314.616 3404.64 283.854 3442.08 262.695C3479.51 241.211 3521.02 230.469 3566.59 230.469C3598.49 230.469 3627.79 236.003 3654.48 247.07C3681.17 257.812 3701.68 273.112 3716 292.969V240.234H3875.18ZM3604.19 630.859C3627.62 630.859 3648.78 625.488 3667.66 614.746C3686.87 603.678 3701.84 588.053 3712.59 567.871C3723.65 547.363 3729.19 523.6 3729.19 496.582C3729.19 469.564 3723.65 445.801 3712.59 425.293C3701.52 404.785 3686.54 389.16 3667.66 378.418C3648.78 367.35 3627.62 361.816 3604.19 361.816C3580.42 361.816 3559.1 367.188 3540.22 377.93C3521.34 388.672 3506.37 404.297 3495.3 424.805C3484.23 444.987 3478.7 468.913 3478.7 496.582C3478.7 523.926 3484.23 547.852 3495.3 568.359C3506.37 588.542 3521.34 604.004 3540.22 614.746C3559.1 625.488 3580.42 630.859 3604.19 630.859ZM3995.3 0H4155.95V750H3995.3V0Z" fill="white"/>
</svg>
